<svg xmlns="http://www.w3.org/2000/svg" fill="none" viewBox="0 0 40 40">
  <path fill="#FF9F0E" d="M1.88 15.5h36.25v-2.667H1.88V15.5Zm35.458-.792v1.17h2.667v-1.17h-2.667Zm-4.304 22.125H6.975V39.5h26.06v-2.667ZM2.671 15.88v-1.171H.005v1.17H2.67Zm5.056 21.418A47.894 47.894 0 0 1 2.671 15.88H.005c0 7.85 1.826 15.592 5.338 22.613l2.384-1.195Zm-.752-.464c.32 0 .611.182.752.464l-2.384 1.195A1.827 1.827 0 0 0 6.975 39.5v-2.667Zm25.307.464a.84.84 0 0 1 .752-.464V39.5c.693 0 1.323-.39 1.632-1.008l-2.384-1.195Zm5.056-21.418a47.929 47.929 0 0 1-5.056 21.418l2.384 1.195a50.562 50.562 0 0 0 5.339-22.613h-2.667Zm.792-.38a.792.792 0 0 1-.792-.791h2.667a1.874 1.874 0 0 0-1.875-1.875V15.5ZM1.88 12.834a1.875 1.875 0 0 0-1.875 1.875H2.67a.792.792 0 0 1-.792.792v-2.667Zm8.602 2.019 8-13.333-2.29-1.371-8 13.333 2.29 1.37ZM21.527 1.519l8 13.333 2.288-1.37-8-13.334-2.288 1.37Zm-8.189 24.648h13.333V23.5H13.338v2.667Z"/>
</svg>
