<svg xmlns="http://www.w3.org/2000/svg" fill="none" viewBox="0 0 28 28">
  <path fill="#FF9F0E" d="M14 27.333c-1.822 0-3.544-.35-5.167-1.05a13.501 13.501 0 0 1-4.249-2.867 13.502 13.502 0 0 1-2.867-4.25A12.894 12.894 0 0 1 .667 14c0-1.845.35-3.572 1.05-5.183a13.552 13.552 0 0 1 2.867-4.233 13.52 13.52 0 0 1 4.25-2.868c1.622-.7 3.344-1.05 5.166-1.05 1.844 0 3.572.35 5.183 1.05a13.57 13.57 0 0 1 4.233 2.868 13.552 13.552 0 0 1 2.867 4.233c.7 1.611 1.05 3.338 1.05 5.183v1.933c0 1.311-.45 2.428-1.349 3.35-.9.922-2.006 1.384-3.317 1.384-.8 0-1.545-.178-2.234-.534a5.005 5.005 0 0 1-1.7-1.4A6.629 6.629 0 0 1 14 20.667c-1.845 0-3.416-.65-4.716-1.951-1.3-1.3-1.95-2.872-1.95-4.716 0-1.845.65-3.417 1.95-4.717 1.3-1.3 2.871-1.95 4.716-1.95 1.844 0 3.417.65 4.717 1.95 1.3 1.3 1.95 2.873 1.95 4.717v1.933c0 .645.2 1.15.6 1.516.4.367.866.551 1.4.551.533 0 1-.184 1.4-.55.4-.367.6-.872.6-1.517V14c0-2.911-1.05-5.417-3.151-7.517-2.1-2.1-4.605-3.15-7.516-3.15-2.911 0-5.417 1.05-7.517 3.15-2.1 2.1-3.15 4.606-3.15 7.517 0 2.911 1.05 5.416 3.15 7.516 2.1 2.1 4.606 3.15 7.517 3.15h6.667v2.667H14ZM14 18c1.111 0 2.055-.389 2.833-1.167C17.611 16.056 18 15.111 18 14c0-1.111-.389-2.056-1.167-2.833C16.056 10.389 15.111 10 14 10c-1.111 0-2.056.389-2.833 1.167C10.389 11.944 10 12.889 10 14c0 1.111.389 2.055 1.167 2.833C11.944 17.611 12.889 18 14 18Z"/>
</svg>
