<svg xmlns="http://www.w3.org/2000/svg" fill="none" viewBox="0 0 22 28">
  <path fill="#FF9F0E" d="M1.467 27.333v-12.8l-.367-.366a2.55 2.55 0 0 1-.567-.867 2.758 2.758 0 0 1-.2-1.033A2.628 2.628 0 0 1 1.1 10.4L5.467 6H10.8L16.133.667 18.867 3.4a9.739 9.739 0 0 1 2.066 3.016A8.879 8.879 0 0 1 21.667 10a8.879 8.879 0 0 1-.734 3.584 9.74 9.74 0 0 1-2.066 3.016l-2.734 2.733v8H1.467Zm2.666-2.666h9.334v-6.434l3.5-3.5a7.158 7.158 0 0 0 1.5-2.166c.355-.8.533-1.656.533-2.567 0-.889-.183-1.733-.55-2.533A7.737 7.737 0 0 0 16.966 5.3l-.834-.867L11.9 8.667H6.567l-.767.766 2.233 2.234a6.747 6.747 0 0 1 1.451 2.149 6.47 6.47 0 0 1 .516 2.55 6.65 6.65 0 0 1-.5 2.551A6.634 6.634 0 0 1 8.033 21.1l-3.9-3.9v7.467Z"/>
</svg>
