<svg xmlns="http://www.w3.org/2000/svg" fill="none" viewBox="0 0 21 27">
  <path fill="#FF9F0E" d="M6.384 6.714c0-1.125.446-2.204 1.24-3a4.232 4.232 0 0 1 5.99 0 4.246 4.246 0 0 1 0 6 4.232 4.232 0 0 1-5.99 0 4.246 4.246 0 0 1-1.24-3ZM10.619.048A6.65 6.65 0 0 0 5.913 2a6.672 6.672 0 0 0 0 9.428 6.65 6.65 0 0 0 9.412 0 6.672 6.672 0 0 0 0-9.428A6.65 6.65 0 0 0 10.62.048ZM.333 19.442c0-.965.383-1.89 1.064-2.572a3.627 3.627 0 0 1 2.567-1.065h13.31c.963 0 1.887.383 2.567 1.065a3.64 3.64 0 0 1 1.064 2.572v.273c-.003.114-.01.226-.024.339-.025.21-.07.494-.158.831a6.75 6.75 0 0 1-1.209 2.445c-1.415 1.82-4.079 3.384-8.895 3.384s-7.478-1.563-8.895-3.384a6.748 6.748 0 0 1-1.21-2.445 5.956 5.956 0 0 1-.177-1.088 3.031 3.031 0 0 1-.002-.082v-.027l-.002-.01v-.236Zm2.42.215v.015c.017.204.052.406.103.604.11.421.33.991.776 1.564.853 1.096 2.728 2.45 6.987 2.45 4.26 0 6.135-1.354 6.987-2.448.362-.464.625-.997.775-1.566.052-.198.086-.4.104-.604v-.23a1.213 1.213 0 0 0-1.21-1.213H3.965a1.21 1.21 0 0 0-1.21 1.213v.215Z"/>
</svg>
