<svg xmlns="http://www.w3.org/2000/svg" fill="none" viewBox="0 0 28 28">
  <path fill="#FF9F0E" d="M25.833 27.333c-3.466 0-6.727-.655-9.782-1.966-3.056-1.312-5.723-3.106-8-5.383-2.279-2.278-4.079-4.945-5.4-8C1.328 8.928.667 5.656.667 2.167c-.023-.4.11-.75.4-1.051.289-.3.644-.45 1.066-.45h5.2c.4 0 .745.15 1.034.45.289.3.433.662.433 1.084 0 .978.067 1.9.2 2.767.133.866.344 1.689.633 2.466.111.245.134.495.067.75-.067.256-.2.495-.4.717l-3.333 3.333c.955 1.956 2.31 3.811 4.066 5.567 1.756 1.755 3.645 3.155 5.667 4.2l3.333-3.333c.2-.2.434-.334.7-.4.267-.067.534-.045.8.066a17.34 17.34 0 0 0 2.55.616c.878.145 1.784.218 2.717.218.422 0 .784.155 1.084.466.3.311.45.69.45 1.134v5.1c0 .4-.145.744-.434 1.033a1.45 1.45 0 0 1-1.067.433Zm-7.666-4c1 .378 2.044.678 3.133.9 1.089.223 2.211.367 3.367.434V21.8a24.142 24.142 0 0 1-2.116-.233 14.683 14.683 0 0 1-2.151-.5l-2.233 2.266Zm6.5-9.333c0-2.978-1.034-5.5-3.1-7.567-2.067-2.066-4.59-3.1-7.567-3.1V.667c1.845 0 3.578.35 5.2 1.049 1.622.7 3.033 1.65 4.233 2.85a13.47 13.47 0 0 1 2.85 4.234c.7 1.622 1.05 3.355 1.05 5.2h-2.666Zm-5.334 0c0-1.467-.522-2.722-1.566-3.767-1.045-1.044-2.3-1.566-3.767-1.566V6c2.222 0 4.111.778 5.667 2.333C21.222 9.89 22 11.778 22 14h-2.667ZM4.667 9.767l2.2-2.234A21.195 21.195 0 0 1 6.416 5.5a19.99 19.99 0 0 1-.25-2.167h-2.8c.045 1.067.178 2.134.4 3.2.223 1.067.523 2.145.9 3.234Z"/>
</svg>
