<svg aria-hidden="true" style="position: absolute; width: 0; height: 0; overflow: hidden;" version="1.1" xmlns="http://www.w3.org/2000/svg" xmlns:xlink="http://www.w3.org/1999/xlink">
<defs>
<symbol id="icon-bathing" viewBox="0 0 32 32">
<title>bathing</title>
<path d="M22.772 14.919c-0.266-0.621-0.695-1.13-1.234-1.485l-0.012-0.008c-0.399-0.257-1.946-0.463-1.995 0.978 0 0-0.649 0.103-0.599 0.567 0 0-0.399 1.39 1.496 1.235 0 0 0.349 2.625 0.648 3.192 0 0 0.15 0.515 0.2 1.030h0.798l0.050-1.030s0.449 0.309 0.798 1.030h1.147c-0.050-0.412-0.1-0.772-0.2-1.030 0 0 1.696 0 2.295-0.772 0 0 0.499 0.978 1.097 1.029v0.824h0.798c0.050-0.154 0.050-0.309 0.1-0.566 0 0 0.299 0.155 0.449 0.567h0.698c-0.1-0.361-0.998-3.707-1.297-3.964 0 0 0.449-0.051 0.598 0.515 0 0 0.249 1.184 0.748 1.133 0 0 0.349-0.772-0.249-1.75 0 0-0.25-0.721-1.547-0.618l-3.741-0.103c-0.455-0.093-0.83-0.378-1.044-0.764l-0.004-0.008zM18.233 10.955c0.299-0.412 0.249-1.030-0.15-1.39-0.399-0.309-0.997-0.257-1.347 0.154-0.948 1.236-2.643 1.441-3.841 0.927l-0.648 1.853c2.045 0.823 4.539 0.412 5.986-1.544zM9.753 7.712c1.35 0 2.444-1.129 2.444-2.522s-1.094-2.523-2.444-2.523-2.444 1.129-2.444 2.523c0 1.393 1.094 2.522 2.444 2.522z"></path>
<path d="M11.2 20.993l-2.095-0.875 1.247-3.655c-2.793-1.596-3.791-4.118-3.841-4.273-0.299-0.772 0.050-1.596 0.798-1.905s1.547 0.052 1.846 0.824c0.050 0.103 0.648 1.442 2.195 2.523l0.948-2.677c0.1-0.309 0.050-0.618-0.149-0.875-1.796-2.059-3.891-2.831-6.185-2.111-0.648 0.206-1.097 0.721-1.247 1.39l-1.995 10.708v0.309l0.1 4.891-1.098-0.257c-0.748-0.154-1.546 0.36-1.696 1.133s0.349 1.596 1.097 1.75l2.843 0.618c0.449 0.103 0.848 0 1.197-0.309s0.549-0.721 0.499-1.184l-0.1-5.148 3.642 1.493v4.478c0 0.824 0.648 1.493 1.447 1.493s1.446-0.669 1.446-1.493v-5.457c0.050-0.618-0.349-1.133-0.898-1.39z"></path>
<path d="M15.041 15.382c-4.739-0.36-6.235-3.913-6.285-4.067-0.2-0.515-0.748-0.721-1.247-0.515s-0.698 0.772-0.499 1.287c0.1 0.206 1.995 4.839 7.931 5.303 0.549 0.051 0.998-0.36 0.998-0.927s-0.349-1.030-0.898-1.081zM23.57 8.69c-0.997 0.206-1.746 1.132-1.746 2.213h4.439c0-1.184-0.848-2.111-1.945-2.265-1.497-1.699-3.891-1.030-5.786 0.669 0.1 0.103 0.199 0.257 0.299 0.412 1.347-1.287 3.192-2.162 4.738-1.029zM31.152 20.891h-14.017c-0.399 0-0.748 0.36-0.748 0.772s0.349 0.772 0.748 0.772h0.15v1.287c0 2.008 1.596 3.655 3.541 3.655h6.734c1.945 0 3.541-1.647 3.541-3.655v-1.287h0.15c0.399 0 0.748-0.36 0.748-0.772-0.1-0.463-0.449-0.772-0.848-0.772zM22.223 11.933l0.050-0.463c0-0.155-0.050-0.258-0.2-0.258s-0.249 0.051-0.249 0.206l-0.050 0.463c0 0.154 0.050 0.257 0.2 0.257 0.1 0 0.2-0.103 0.249-0.206zM21.625 12.551l-0.050 0.463c0 0.155 0.050 0.258 0.2 0.258s0.249-0.052 0.249-0.206l0.050-0.463c0-0.154-0.050-0.257-0.2-0.257-0.1 0-0.199 0.103-0.249 0.206zM23.321 12.139c0.15 0 0.249-0.103 0.249-0.257v-0.515c0-0.154-0.1-0.257-0.249-0.257s-0.249 0.103-0.249 0.257v0.515c0 0.103 0.15 0.257 0.249 0.257zM23.021 13.066c0 0.154 0.1 0.257 0.25 0.257s0.249-0.103 0.249-0.257v-0.515c0-0.154-0.1-0.257-0.249-0.257s-0.25 0.103-0.25 0.257v0.515zM24.668 11.161c-0.15 0-0.25 0.103-0.25 0.257v0.515c0 0.155 0.1 0.258 0.25 0.258s0.249-0.103 0.249-0.258v-0.515c0-0.154-0.1-0.257-0.249-0.257zM24.518 12.602v0.515c0 0.155 0.1 0.258 0.249 0.258s0.249-0.103 0.249-0.258v-0.515c0-0.154-0.1-0.257-0.249-0.257-0.2 0-0.299 0.103-0.249 0.257zM25.964 11.161c-0.15 0-0.199 0.154-0.199 0.257l0.050 0.463c0 0.103 0.1 0.206 0.249 0.206s0.249-0.155 0.249-0.309l-0.1-0.412c0-0.154-0.15-0.257-0.249-0.206zM25.915 12.654l0.050 0.463c0 0.103 0.149 0.206 0.249 0.206 0.15 0 0.249-0.154 0.199-0.257v-0.515c0-0.155-0.15-0.206-0.249-0.206-0.15 0.051-0.249 0.154-0.249 0.309z"></path>
</symbol>
<symbol id="icon-grooming" viewBox="0 0 32 32">
<title>grooming</title>
<path d="M21.1 9.363c-0.084-0.371-0.315-0.65-0.633-0.765-0.022-0.008-0.046-0.009-0.069-0.016 0.228-1.036 0.87-4.801-1.233-7.004-1.22-1.277-3.122-1.782-5.651-1.503-0.044-0.018-0.095-0.030-0.149-0.032l-0.001-0c-1.986-0.064-3.507 0.484-4.504 1.626-1.953 2.237-1.246 6.013-1.042 6.908-0.030 0.008-0.061 0.010-0.090 0.020-0.318 0.115-0.549 0.394-0.634 0.765-0.076 0.331-0.033 0.713 0.118 1.075 0.278 0.665 0.841 1.090 1.381 1.090 0.058 0 0.115-0.005 0.172-0.015 0.459 1.357 1.223 2.486 2.487 3.179v1.391h-0.656v3.925h7.002v-3.925h-0.657v-1.383c1.266-0.692 2.031-1.824 2.489-3.187 0.056 0.010 0.113 0.014 0.17 0.014 0.54 0 1.103-0.425 1.382-1.089 0.152-0.363 0.193-0.745 0.118-1.075zM7.814 10.219c-0.105-0.251-0.137-0.518-0.088-0.732 0.039-0.169 0.125-0.289 0.236-0.33 0.028-0.010 0.061-0.016 0.095-0.016 0.001 0 0.002 0 0.003 0h-0c0.063 0 0.133 0.018 0.205 0.051 0.074 0.599 0.179 1.18 0.326 1.732-0.247-0.005-0.593-0.269-0.776-0.705zM17.312 16.684c-0.643 0.629-1.84 1.052-3.215 1.052s-2.572-0.424-3.215-1.052h0.693c0.179 0 0.323-0.135 0.323-0.301v-1.392c0.63 0.241 1.362 0.392 2.215 0.432 0.839-0.040 1.56-0.188 2.182-0.425v1.385c0 0.166 0.145 0.301 0.323 0.301h0.693zM19.296 8.874c-0.028 0.266-0.053 0.453-0.080 0.64l0.011-0.092c-0.075 0.51-0.165 0.944-0.278 1.37l0.019-0.086c-0.039 0.153-0.084 0.299-0.13 0.444-0.396 1.263-1.020 2.247-1.983 2.876-0.143 0.093-0.297 0.174-0.454 0.251-0.633 0.312-1.384 0.503-2.289 0.546-0.902-0.043-1.653-0.231-2.287-0.537-0.19-0.090-0.348-0.179-0.5-0.277l0.017 0.010c-0.966-0.63-1.591-1.612-1.988-2.872-0.030-0.082-0.074-0.23-0.115-0.38l-0.015-0.064c-0.093-0.339-0.184-0.772-0.25-1.213l-0.008-0.068c-0.088-0.594-0.157-1.32-0.19-2.055l-0.002-0.049c0.076-0.441 0.187-0.807 0.319-1.107 0.426-0.072 0.806-0.189 1.164-0.347l-0.031 0.012c0.080 0.102 0.215 0.167 0.353 0.158 0.072-0.003 1.024-0.054 2.030-0.421-0.005 0.042-0.002 0.086 0.009 0.129 0.043 0.168 0.203 0.288 0.389 0.292 0.087 0.003 1.797 0.022 2.853-1.101 0.407 0.908 1.322 2.395 3.187 3.328l0.278 0.357c-0.009 0.087-0.020 0.17-0.030 0.255zM20.379 10.219c-0.181 0.435-0.527 0.699-0.773 0.705 0.145-0.552 0.25-1.132 0.324-1.731 0.072-0.033 0.142-0.051 0.205-0.051 0.035 0 0.068 0.005 0.097 0.016 0.153 0.055 0.213 0.23 0.236 0.33 0.049 0.214 0.016 0.481-0.089 0.732zM13.364 11.002v-0.843c0-0.166 0.145-0.301 0.323-0.301s0.323 0.135 0.323 0.301v0.775h0.497c0.179 0 0.323 0.135 0.323 0.301s-0.145 0.301-0.323 0.301h-0.57c-0.316 0-0.573-0.239-0.573-0.533zM11.819 9.069c0 0.323-0.282 0.585-0.629 0.585s-0.629-0.262-0.629-0.585 0.282-0.586 0.629-0.586c0.347 0 0.629 0.262 0.629 0.586zM17.633 9.069c0 0.323-0.281 0.585-0.629 0.585s-0.629-0.262-0.629-0.585 0.282-0.586 0.629-0.586 0.629 0.262 0.629 0.586zM15.679 12.854c0 0.485-0.817 0.658-1.582 0.658s-1.582-0.173-1.582-0.658c0-0.166 0.145-0.301 0.323-0.301 0.144 0 0.266 0.088 0.308 0.209 0.108 0.059 0.448 0.149 0.951 0.149s0.843-0.089 0.951-0.149c0.042-0.121 0.164-0.209 0.308-0.209 0.178 0 0.323 0.135 0.323 0.301zM31.891 22.231c-0.096-0.151-0.237-0.267-0.404-0.329l-0.006-0.002c0.007-0.036 0.010-0.078 0.010-0.121 0-0.139-0.039-0.268-0.107-0.378l0.002 0.003c-0.096-0.151-0.237-0.267-0.404-0.329l-0.006-0.002c0.027-0.165 0-0.339-0.095-0.496s-0.243-0.267-0.409-0.33c0.007-0.037 0.010-0.079 0.010-0.122 0-0.138-0.039-0.268-0.107-0.378l0.002 0.003c-0.113-0.179-0.289-0.31-0.496-0.362l-0.006-0.001c-0.066-0.018-0.142-0.028-0.22-0.028-0.15 0-0.291 0.037-0.415 0.104l0.005-0.002-0.327 0.173c-0.067-0.1-0.148-0.183-0.243-0.25l-0.003-0.002v-0.329h1.831c0.179 0 0.323-0.135 0.323-0.301s-0.145-0.301-0.323-0.301h-1.831v-0.3h1.831c0.179 0 0.323-0.135 0.323-0.301s-0.145-0.3-0.323-0.3h-1.831v-0.301h1.831c0.179 0 0.323-0.135 0.323-0.301s-0.145-0.301-0.323-0.301h-1.831v-0.301h1.831c0.179 0 0.323-0.135 0.323-0.301s-0.145-0.301-0.323-0.301h-1.831l0.002-0.301h1.829c0.179 0 0.323-0.135 0.323-0.301s-0.145-0.301-0.323-0.301h-1.829c-0.363 0-0.648 0.308-0.648 0.702v1.448c-0.028-0.342-0.164-0.685-0.404-0.98-0.59-0.728-1.602-0.947-2.253-0.489-0.339 0.239-0.512 0.615-0.519 1.023-0.424-0.105-0.861-0.054-1.2 0.184-0.327 0.23-0.519 0.603-0.527 1.023-0.006 0.389 0.141 0.789 0.416 1.127s0.648 0.579 1.052 0.68c0.135 0.033 0.27 0.050 0.402 0.050 0.294 0 0.573-0.082 0.799-0.241 0.021-0.015 0.037-0.035 0.057-0.051l1.014 1.131-0.366 0.734c-0.028 0.045-0.053 0.091-0.076 0.139l-2.131 1.124-3.636-5.555c-0.093-0.136-0.196-0.254-0.313-0.358l-0.002-0.002c-0.197-0.234-0.472-0.396-0.785-0.448l-0.008-0.001c-0.196-0.064-0.421-0.1-0.655-0.1-0.115 0-0.228 0.009-0.338 0.026l0.012-0.002v4.029c0.079 0.023 0.152 0.056 0.216 0.1 0.119 0.083 0.206 0.2 0.241 0.338l0.082 0.318 1.508 5.879v-2.518l1.211 1.851c0.385 0.588 1.058 0.914 1.75 0.914 0.343 0 0.69-0.080 1.008-0.248l3.88-2.048c0.016-0.008 0.028-0.020 0.044-0.029 0.030 0.002 0.061 0.006 0.091 0.006 0.252 0 0.508-0.059 0.743-0.183l0.729-0.385 0.044 0.050c0.147 0.164 0.407 0.192 0.591 0.063l0.133-0.094 0.141-0.099 0.133-0.094c0.134-0.094 0.185-0.254 0.148-0.409l0.317-0.168c0.187-0.097 0.327-0.262 0.389-0.461l0.001-0.006c0.019-0.062 0.030-0.133 0.030-0.206 0-0.141-0.040-0.272-0.11-0.383l0.002 0.003zM30.011 20.843l0.059-0.031c0.026-0.014 0.057-0.022 0.091-0.022 0.017 0 0.034 0.002 0.050 0.006l-0.001-0c0.047 0.012 0.086 0.040 0.111 0.079l0 0.001c0.050 0.082 0.019 0.187-0.069 0.233l-0.059 0.031-0.787 0.416c-0.026 0.014-0.058 0.022-0.091 0.022-0.017 0-0.034-0.002-0.050-0.006l0.001 0c-0.047-0.012-0.086-0.041-0.11-0.080l-0-0.001c-0.015-0.024-0.024-0.054-0.024-0.085 0-0.065 0.037-0.121 0.091-0.148l0.001-0 0.787-0.416zM28.973 20.375l0.008-0.016c0.006-0.012 0.008-0.025 0.013-0.037 0.006-0.014 0.010-0.028 0.015-0.043l0.555-0.294c0.026-0.014 0.058-0.022 0.091-0.022 0.017 0 0.034 0.002 0.050 0.006l-0.001-0c0.047 0.012 0.086 0.040 0.111 0.079l0 0.001c0.014 0.023 0.022 0.051 0.022 0.081 0 0.029-0.008 0.056-0.021 0.079l0-0.001c-0.016 0.032-0.040 0.057-0.070 0.074l-0.001 0-0.846 0.447c-0.025 0.013-0.055 0.020-0.086 0.020-0.010 0-0.020-0.001-0.030-0.002l0.001 0 0.187-0.373zM25.273 18.735c-0.156 0.109-0.355 0.082-0.46 0.056-0.216-0.054-0.43-0.195-0.587-0.389s-0.245-0.423-0.241-0.632c0.002-0.101 0.028-0.286 0.184-0.396 0.078-0.055 0.175-0.081 0.279-0.081 0.253 0 0.555 0.152 0.767 0.413 0.299 0.369 0.325 0.839 0.058 1.027zM25.946 17.194c-0.299-0.369-0.325-0.839-0.057-1.027 0.078-0.055 0.174-0.081 0.279-0.081 0.253 0 0.555 0.153 0.767 0.414 0.157 0.193 0.245 0.423 0.242 0.631-0.002 0.101-0.028 0.286-0.184 0.396s-0.355 0.082-0.459 0.056c-0.217-0.054-0.43-0.196-0.587-0.389zM26.778 19.61c-0.147-0.182-0.109-0.44 0.087-0.577s0.473-0.101 0.62 0.081c0.052 0.063 0.073 0.137 0.080 0.21-0.121 0.073-0.223 0.172-0.287 0.299l-0.070 0.141c-0.159 0.026-0.327-0.025-0.43-0.153zM29.319 23.741l-0.296 0.156c-0.413 0.219-0.942 0.083-1.177-0.301l-0.799-1.307c-0.071-0.112-0.113-0.249-0.113-0.396 0-0.076 0.011-0.15 0.033-0.22l-0.001 0.005 0.003-0.007 0.106-0.213 0.79-1.583c0.023-0.045 0.085-0.075 0.162-0.082 0.057-0.005 0.121 0.001 0.187 0.030s0.113 0.071 0.145 0.114c0.007 0.010 0.016 0.019 0.021 0.029 0.027 0.050 0.034 0.1 0.015 0.138l-0.793 1.584c-0.013 0.025-0.015 0.051-0.020 0.078-0.023 0.13 0.042 0.263 0.177 0.322 0.044 0.019 0.090 0.028 0.136 0.028 0.046 0 0.090-0.012 0.132-0.029v1.428c0 0.166 0.145 0.301 0.323 0.301s0.323-0.135 0.323-0.301v-1.042l0.979 1.092-0.333 0.176zM29.91 22.382c-0.026 0.014-0.057 0.022-0.091 0.022-0.017 0-0.034-0.002-0.050-0.006l0.001 0c-0.047-0.012-0.086-0.041-0.11-0.080l-0-0.001c-0.015-0.024-0.024-0.054-0.024-0.085 0-0.065 0.037-0.121 0.091-0.148l0.001-0 0.846-0.447c0.026-0.014 0.057-0.022 0.090-0.022 0.017 0 0.034 0.002 0.050 0.006l-0.001-0c0.047 0.012 0.086 0.040 0.11 0.079l0 0.001c0.050 0.082 0.019 0.187-0.068 0.233l-0.059 0.031-0.787 0.416zM31.347 22.658c-0.014 0.045-0.045 0.081-0.085 0.102l-0.001 0h-0l-0.152 0.080-0.693 0.367c-0.025 0.013-0.055 0.021-0.086 0.021-0.013 0-0.025-0.001-0.037-0.004l0.001 0c-0.054-0.007-0.1-0.038-0.129-0.081l-0-0.001c-0.015-0.024-0.023-0.054-0.023-0.085 0-0.065 0.037-0.121 0.092-0.148l0.001-0 0.846-0.447c0.026-0.014 0.057-0.022 0.090-0.022h0c0.005 0 0.010 0.001 0.015 0.002 0.061 0.003 0.114 0.036 0.145 0.085l0 0.001c0.024 0.040 0.030 0.086 0.017 0.13zM20.551 31.362l-0.18-3.894c-0.001-0.011-0.002-0.022-0.005-0.032l0 0.001-1.761-6.865c-0.008-0.027-0.021-0.051-0.038-0.070l0 0c-0.048-0.057-0.131-0.093-0.225-0.093h-8.492c-0.093 0-0.177 0.037-0.224 0.093-0.017 0.019-0.031 0.043-0.038 0.068l-0 0.001-1.546 6.030-0.24-0.126c-0.051-0.026-0.102-0.047-0.153-0.068l1.52-5.928c0.039-0.141 0.125-0.259 0.24-0.337l0.002-0.001c0.063-0.044 0.137-0.078 0.216-0.1v-4.014c-0.754-0.227-1.614-0.035-2.17 0.554l-6.948 7.366c-0.386 0.409-0.565 0.951-0.493 1.49s0.389 1.025 0.87 1.333l3.986 2.556c0.124 0.080 0.256 0.14 0.391 0.191 0.163 0.174 0.354 0.32 0.565 0.431l0.012 0.006 1.815 0.941c0.003 0.002 0.007 0.002 0.011 0.004l-0.022 0.464-0.020 0.431c-0 0.001-0 0.002-0 0.003 0 0.049 0.021 0.094 0.055 0.125l0 0c0.054 0.049 0.125 0.079 0.204 0.079 0.003 0 0.005-0 0.008-0h12.413c0.002 0 0.005 0 0.008 0 0.079 0 0.15-0.030 0.204-0.079l-0 0c0.034-0.031 0.056-0.075 0.056-0.125 0-0.001 0-0.002-0-0.004v0l-0.020-0.432zM5.103 24.849l2.477-2.626v4.153c-0.065-0.026-0.146-0.051-0.229-0.073l-0.015-0.003c-0.048-0.037-0.089-0.078-0.141-0.111l-2.091-1.341zM9.953 28.41c-0.021 0.032-0.056 0.053-0.097 0.053-0.019 0-0.038-0.005-0.054-0.013l0.001 0-1.469-0.762c-0.082-0.042-0.177-0.039-0.263-0.008-0.080 0.028-0.146 0.080-0.19 0.148l-0.001 0.001c-0.026 0.042-0.041 0.093-0.041 0.147 0 0.029 0.004 0.058 0.013 0.084l-0.001-0.002c0.026 0.079 0.080 0.143 0.152 0.18l0.002 0.001 0.001 0.001 1.759 0.912c0.025 0.013 0.043 0.035 0.051 0.061l0 0.001c0.003 0.009 0.004 0.018 0.004 0.029 0 0.018-0.005 0.035-0.014 0.049l0-0c-0.015 0.024-0.038 0.041-0.065 0.048l-0.001 0c-0.009 0.003-0.020 0.004-0.030 0.004-0.019 0-0.038-0.005-0.054-0.013l0.001 0-1.76-0.913c-0.033-0.017-0.072-0.027-0.113-0.029l-0.001-0c-0.006-0-0.012-0-0.019-0-0.068 0-0.132 0.018-0.186 0.051l0.002-0.001c-0.006 0.003-0.012 0.006-0.018 0.009-0.049 0.028-0.089 0.066-0.119 0.111l-0.001 0.001c-0.026 0.042-0.041 0.093-0.041 0.147 0 0.029 0.004 0.057 0.013 0.084l-0.001-0.002c0.020 0.066 0.067 0.12 0.126 0.159 0.010 0.007 0.017 0.017 0.028 0.022l0.013 0.007 0.015 0.008 1.441 0.747c0.025 0.013 0.044 0.035 0.052 0.061l0 0.001c0.003 0.009 0.004 0.018 0.004 0.028 0 0.018-0.005 0.035-0.014 0.049l0-0c-0.021 0.032-0.057 0.052-0.097 0.052-0.019 0-0.037-0.005-0.053-0.013l0.001 0-1.634-0.846c-0.102-0.053-0.259-0.033-0.359 0.025-0.091 0.052-0.152 0.148-0.152 0.259 0 0.001 0 0.003 0 0.004v-0c0.003 0.058 0.022 0.111 0.054 0.155l-0.001-0.001c0.028 0.041 0.065 0.077 0.112 0.101l1.125 0.583c0.025 0.013 0.043 0.034 0.051 0.061l0 0.001c0.003 0.008 0.004 0.018 0.004 0.028 0 0.018-0.005 0.035-0.014 0.050l0-0c-0.021 0.032-0.056 0.053-0.097 0.053-0.019 0-0.037-0.005-0.053-0.013l0.001 0-1.815-0.941c-0.296-0.153-0.528-0.397-0.663-0.693l-0.004-0.009c-0.175-0.402-0.155-0.841 0.052-1.175 0.275-0.425 0.746-0.703 1.282-0.707h0c0.22 0 0.448 0.051 0.674 0.162 0.007 0.003 0.013 0.005 0.020 0.008l0.065 0.034 2.33 1.222c0.025 0.013 0.043 0.035 0.052 0.061l0 0.001c0.003 0.009 0.005 0.019 0.005 0.029 0 0.018-0.005 0.035-0.014 0.049l0-0zM17.943 26.919c-0.010 0.528-0.557 0.759-0.837 0.351l-0.281-0.41c-0.081 0.259-0.195 0.485-0.34 0.687l0.005-0.007c0.001 0.032 0.005 0.064 0.005 0.097 0 1.363-1.073 2.468-2.398 2.468s-2.398-1.105-2.398-2.468c0-0.033 0.003-0.064 0.005-0.097-0.14-0.195-0.255-0.42-0.331-0.662l-0.005-0.017-0.281 0.41c-0.279 0.408-0.827 0.177-0.837-0.351-0.004-0.276-0.016-0.539-0.034-0.799l0.003 0.046c-0.061-0.882 1.229-1.295 1.81-1.436 0.517-0.346 1.251-0.501 2.068-0.501s1.551 0.156 2.068 0.501c0.581 0.141 1.871 0.555 1.81 1.436-0.016 0.214-0.027 0.476-0.032 0.741l-0 0.013zM13.114 28.749c0-0.371 0.44-0.672 0.982-0.672s0.983 0.301 0.983 0.672c0 0.371-0.44 0.672-0.983 0.672s-0.982-0.301-0.982-0.672z"></path>
</symbol>
<symbol id="icon-more" viewBox="0 0 32 32">
<title>more</title>
<path d="M31.771 16.552c0.141-0.141 0.229-0.336 0.229-0.552s-0.087-0.411-0.229-0.552l-4.967-4.967c-0.142-0.147-0.341-0.238-0.561-0.238-0.431 0-0.78 0.349-0.78 0.78 0 0.22 0.091 0.419 0.238 0.561l4.415 4.415-4.415 4.415c-0.136 0.14-0.219 0.331-0.219 0.542 0 0.431 0.349 0.78 0.78 0.78 0.211 0 0.402-0.084 0.542-0.219l4.967-4.967zM0 16.78h31.22v-1.561h-31.22v1.561z"></path>
</symbol>
<symbol id="icon-nutrition" viewBox="0 0 32 32">
<title>nutrition</title>
<path d="M22.415 19.13c-0.748-0.147-1.489 0.341-1.802 1.188-0.055 0.146-0.099 0.317-0.124 0.494l-0.001 0.013c0.78-0.468 1.449-1.023 2.023-1.666l0.007-0.008-0.103-0.020zM23.109 10.927c1.403-1.12 1.801-3.423 0.888-5.144s-2.791-2.208-4.194-1.088c-1.403 1.12-1.801 3.423-0.888 5.144s2.79 2.208 4.193 1.088zM28.673 11.865c-1.311-1.991-3.092-2.014-4.075-1.202s-0.911 2.874-0.090 4.259c0.037 0.076 0.077 0.156 0.116 0.234 0.283-1.053 0.323-1.817 0.323-1.828 0.029-0.893 0.62-1.591 1.345-1.591 0.017 0 0.034 0 0.050 0.001 0.743 0.033 1.324 0.801 1.297 1.712v0.003l-0.001 0.015c-0.022 0.51-0.164 2.343-1.067 4.522-0.083 0.2-0.179 0.419-0.291 0.651 0.129 0.278 0.311 0.726 0.48 1.18l0.057 0.176-1.149-0.227c-0.777 1.277-1.967 2.726-3.737 3.862l5.138 5.216c0.314 0.319 0.695 0.475 1.073 0.475 0.484 0 0.965-0.255 1.298-0.749 0.593-0.879 0.493-2.181-0.223-2.909l-1.236-1.255 0.4 0.079c0.124 0.024 0.246 0.030 0.367 0.022 0.29 0.017 0.631-0.107 1.051-0.287 1.166-0.498 2.488-1.377 2.144-4.055-0.693-3.598-1.482-5.555-3.272-8.306z"></path>
<path d="M26.332 17.841c0.97-2.342 1.033-4.28 1.039-4.402 0.022-0.73-0.442-1.343-1.037-1.37s-1.093 0.541-1.117 1.269c-0.002 0.084-0.092 1.678-0.879 3.474-0.796 1.799-2.226 3.82-5.122 5.003-0.565 0.229-0.873 0.976-0.686 1.67 0.149 0.555 0.571 0.908 1.023 0.908 0.112 0 0.226-0.021 0.338-0.067 3.541-1.421 5.48-4.147 6.441-6.486zM12.134 24.129c0.49 0.114 1.079 0.302 1.235 0.505 0.42 0.543 0.625 1.665 1.169 1.744 0.38 0.055 0.514 0.045 0.985-0.328 0.465-0.369 0.023-1.805-0.088-2.357-0.157-0.783 0.218-1.643 0.224-1.696 0.005-0.043 0.328-0.875 1.263-0.559 0.326 0.111 0.135-0.629-0.376-0.999-0.608-0.439-1.047-0.234-1.492 0.193-0.858-0.805-2.202-0.648-2.966-0.298-0.108 0.52-0.169 1.117-0.169 1.729 0 0.005 0 0.011 0 0.016v-0.001c0.001 0.726 0.079 1.434 0.227 2.116l-0.012-0.066zM14.312 22.392c0.2-0.167 0.472-0.103 0.608 0.141s0.085 0.579-0.115 0.746c-0.2 0.167-0.473 0.104-0.609-0.141s-0.085-0.579 0.116-0.746zM11.538 20.317c-0.199 0.003-0.388-0.004-0.569-0.021-0.051-0.017-0.111-0.028-0.172-0.028-0.009 0-0.018 0-0.026 0.001l0.001-0c-0.004 0-0.008 0.002-0.012 0.002-2.749-0.383-3.497-2.933-6.708-0.287-0.97-0.35-2.126-1.101-3.002-2.705-0.177-0.323-0.533-0.407-0.796-0.19-0.263 0.217-0.333 0.653-0.155 0.976 0.833 1.51 1.863 2.394 2.829 2.913-0.011 0.029-0.023 0.063-0.035 0.097-0.248 0.457-0.442 1.059-0.568 1.861-0.018 0.117-0.804 6.273 0.431 6.273s1.574-4.657 2.264-5.253c0.097 0.011 1.929 2.365 3.494 2.069 0.367-0.070 0.863-0.347 1.277-0.643l0.677 3.324c0.077 0.373 0.348 0.626 0.653 0.626 0.033 0 0.067-0.003 0.101-0.009 0.344-0.063 0.591-0.434 0.573-0.86l-0.176-4.139c-0.15-0.675-0.237-1.45-0.238-2.245v-0.001c0-0.549 0.044-1.144 0.158-1.763zM17.55 28.446h-0.17l-0.347-1.319h-3.889l-0.347 1.319h-0.17c-0.137 0-0.248 0.136-0.248 0.305s0.111 0.304 0.248 0.304h4.923c0.137 0 0.248-0.136 0.248-0.304s-0.111-0.305-0.248-0.305z"></path>
</symbol>
<symbol id="icon-training" viewBox="0 0 32 32">
<title>training</title>
<path d="M6.231 25.595l1.153-3.878-0.419-1.143c-0.891-0.149-1.626-0.597-2.098-1.193l-1.573 5.22-3.093 5.221c-0.42 0.696-0.157 1.591 0.577 1.989s1.678 0.149 2.098-0.547l3.251-5.37c0.052-0.099 0.105-0.199 0.105-0.298zM1.090 14.764c0.483 0.253 1.127 0.051 1.395-0.456l2.413-4.658 0.429-0.303 0.215-1.266c0.107-0.658 0.429-1.266 0.858-1.772l-2.896 1.772c-0.161 0.101-0.268 0.253-0.376 0.405l-2.521 4.911c-0.268 0.506-0.053 1.114 0.483 1.367zM10.338 5.408c1.632 0 2.954-1.211 2.954-2.704s-1.323-2.704-2.954-2.704-2.954 1.211-2.954 2.704c0 1.493 1.322 2.704 2.954 2.704zM28.969 25.591s0.052 0.050 0.052 0.099c0.418-0.249 0.575-0.797 0.575-0.797 1.569 0.448 1.883-0.947 1.883-0.947 0.209-0.398-0.837-0.797-0.837-0.797-0.052-0.996-1.255-1.295-1.255-1.295-0.575-0.498-0.418 0-0.418 0-0.575-0.050-0.942 0.15-0.942 0.15-0.942-0.847-1.517 0.448-1.517 0.448-0.157 0-0.262 0.050-0.419 0.050 0.942 1.195 1.935 2.241 2.877 3.088zM30.429 28.782c-0.272-0.252-2.228-1.362-2.228-1.362 0.435-0.202 0.489-1.059 0.489-1.362-1.032-0.908-2.119-2.068-3.205-3.379-0.543 0.101-4.129 1.513-7.606 0.051-1.304-0.555-2.445 0.252-2.445 0.252-0.978 1.059-0.543 2.774-0.543 2.774l1.358-1.362c0.706-0.504 0.978-0.403 1.141-0.151 0.109 0.202 0.054 0.454-0.109 0.656-1.304 1.261-0.869 2.572-0.869 2.572l-1.847 1.513c-0.706 0.706 0.109 1.261 0.109 1.261 0.163-0.555 1.467-1.412 1.467-1.412-0.054 0.656 0.272 0.807 0.272 0.807 0.923-0.252 0.706-1.109 0.706-1.109 1.467-0.050 1.63-0.656 1.63-0.656 1.467 0.252 2.173-0.655 2.173-0.655 0.38 0.655 3.694 1.362 3.694 1.362 0.217 0.101 1.467 2.421 1.467 2.421 0.272 0.050 0.543 0.403 0.543 0.403 0.598 0.353 1.847-0.050 1.847-0.050-0.109-0.454-0.761-0.454-0.761-0.454-1.467 0-1.249-2.269-1.249-2.269 0.054-0.303 1.195 0.252 1.195 0.252l2.499 0.858c1.249 0.605 1.793-0.101 1.793-0.101 0.38-0.555-1.521-0.857-1.521-0.857zM18.215 11.014c1.241 2.511 3.885 7.484 7.283 11.522 0.162-0.049 0.378-0.049 0.593-0.099-0.053-0.049-0.108-0.098-0.162-0.197-3.399-3.988-6.042-8.961-7.229-11.423-0.216 0.148-0.432 0.197-0.486 0.197z"></path>
<path d="M18.48 10.433c0.543-0.199 0.869-0.748 0.652-1.247s-0.815-0.798-1.357-0.599l-2.932 0.948c-3.421-2.943-3.583-3.443-4.941-3.642-1.738-0.25-3.367 0.898-3.638 2.495l-1.303 8.382c-0.271 1.597 0.978 3.093 2.715 3.343h0.163l1.412 3.892-2.878 3.892c-0.489 0.649-0.326 1.597 0.434 2.046 0.706 0.449 1.738 0.299 2.226-0.399l3.367-4.49c0.271-0.399 0.38-0.848 0.217-1.297l-1.792-4.939c0.272-0.349 0.489-0.798 0.543-1.247l1.194-7.434 1.357 1.197c0.187 0.167 0.435 0.269 0.707 0.269 0.136 0 0.266-0.026 0.386-0.072l-0.007 0.002 3.475-1.098z"></path>
</symbol>
<symbol id="icon-next" viewBox="0 0 32 32">
<title>next</title>
<path d="M22.809 15.271c-0.019 0.197-0.139 0.412-0.414 0.631l-8.11 6.435c-0.577 0.458-1.947 0.565-1.947-0.513v-11.905c0-0.975 1.47-1.215 2.059-0.818l8.109 5.472c0.309 0.209 0.377 0.459 0.303 0.7zM32 18.654c-0.857 20.541-35.471 16.285-31.715-5.338 1.576-9.073 9.11-13.845 17.389-13.269 9.317 0.647 14.157 9.123 14.327 18.471 0 0.023-0.015 0.043-0.018 0.065 0.003 0.026 0.020 0.042 0.019 0.071zM30.263 18.919c-0.14-6.617-2.487-13.763-8.541-16.607-8.025-3.769-17.479 0.676-19.518 9.838-1.823 8.194 2.232 15.459 9.653 18.087 7.912 2.802 17.974-1.607 18.407-11.317z"></path>
</symbol>
<symbol id="icon-arrow" viewBox="0 0 34 32">
<title>arrow</title>
<path d="M0.586 17.414c-0.362-0.362-0.586-0.862-0.586-1.414s0.224-1.052 0.586-1.414l12.728-12.728c0.366-0.389 0.884-0.631 1.458-0.631 1.105 0 2 0.895 2 2 0 0.575-0.243 1.093-0.631 1.458l-0.001 0.001-11.312 11.314 11.314 11.314c0.377 0.364 0.611 0.874 0.611 1.439 0 1.105-0.895 2-2 2-0.565 0-1.074-0.234-1.438-0.61l-0.001-0.001-12.728-12.728zM34 18h-32v-4h32v4z"></path>
</symbol>
<symbol id="icon-basket" viewBox="0 0 32 32">
<title>basket</title>
<path d="M1.504 12.4h29v-2.134h-29v2.134zM29.87 11.766v0.936h2.134v-0.936h-2.134zM26.427 29.466h-20.847v2.134h20.848v-2.134zM2.137 12.704v-0.937h-2.133v0.936h2.132zM6.182 29.838c-2.55-4.992-4.045-10.889-4.045-17.134v0h-2.133c0 6.28 1.461 12.474 4.27 18.090l1.907-0.956zM5.58 29.467c0.256 0 0.489 0.146 0.602 0.371l-1.907 0.956c0.246 0.481 0.738 0.805 1.306 0.806h0v-2.134zM25.826 29.838c0.113-0.222 0.339-0.371 0.601-0.371 0 0 0 0 0.001 0h-0v2.133c0.554 0 1.058-0.312 1.306-0.806l-1.907-0.956zM29.87 12.704c-0.001 6.246-1.495 12.142-4.145 17.352l0.101-0.218 1.907 0.956c2.693-5.27 4.271-11.496 4.271-18.090v-0h-2.134zM30.504 12.4c-0.35 0-0.633-0.283-0.634-0.633v-0h2.134c0-0 0-0.001 0-0.001 0-0.828-0.671-1.499-1.499-1.499-0 0-0.001 0-0.001 0h0v2.133zM1.504 10.267c-0.828 0-1.5 0.672-1.5 1.5v0h2.132c0 0.35-0.284 0.634-0.634 0.634v0-2.134zM8.386 11.882l6.4-10.666-1.832-1.097-6.4 10.666 1.832 1.096zM17.222 1.215l6.4 10.666 1.83-1.096-6.4-10.667-1.83 1.096zM10.67 20.934h10.666v-2.134h-10.666v2.134z"></path>
</symbol>
<symbol id="icon-close" viewBox="0 0 32 32">
<title>close</title>
<path stroke-linejoin="miter" stroke-linecap="round" stroke-miterlimit="4" stroke-width="3.5556" d="M1.778 1.778l14.222 14.222 14.222-14.222M1.778 30.222l14.222-14.222 14.222 14.222"></path>
</symbol>
<symbol id="icon-facebook" viewBox="0 0 32 32">
<title>facebook</title>
<path d="M29 16c0-7.18-5.82-13-13-13s-13 5.82-13 13c0 7.18 5.82 13 13 13v0c7.177-0.007 12.993-5.823 13-12.999v-0.001zM17 26.95v-7.95h3c0.552 0 1-0.448 1-1s-0.448-1-1-1v0h-3v-3c0-1.105 0.895-2 2-2v0h2c0.552 0 1-0.448 1-1s-0.448-1-1-1v0h-2c-2.206 0.007-3.993 1.794-4 3.999v3.001h-3c-0.552 0-1 0.448-1 1s0.448 1 1 1v0h3v7.95c-5.629-0.529-10-5.231-10-10.954 0-6.075 4.925-11 11-11s11 4.925 11 11c0 5.723-4.371 10.425-9.956 10.951l-0.044 0.003z"></path>
</symbol>
<symbol id="icon-form-email" viewBox="0 0 32 32">
<title>form-email</title>
<path d="M16 31.238c-2.082 0-4.050-0.4-5.905-1.2-1.886-0.815-3.497-1.92-4.856-3.277l0 0c-1.357-1.359-2.462-2.971-3.238-4.757l-0.039-0.1c-0.759-1.717-1.2-3.72-1.2-5.825 0-0.028 0-0.055 0-0.083l-0 0.004c0-2.109 0.4-4.082 1.2-5.923 0.818-1.879 1.923-3.483 3.277-4.838l-0 0c1.359-1.357 2.971-2.462 4.757-3.239l0.1-0.039c1.854-0.8 3.822-1.2 5.904-1.2 2.107 0 4.082 0.4 5.923 1.2 1.878 0.819 3.483 1.924 4.838 3.278l-0-0c1.354 1.355 2.458 2.959 3.238 4.738l0.039 0.1c0.8 1.841 1.2 3.815 1.2 5.923v2.209c0 1.498-0.514 2.775-1.542 3.829-1.029 1.054-2.293 1.582-3.791 1.582-0.914 0-1.766-0.203-2.553-0.61-0.775-0.396-1.423-0.935-1.933-1.587l-0.009-0.013c-1.37 1.366-3.261 2.211-5.349 2.211-0.021 0-0.043-0-0.064-0l0.003 0c-2.109 0-3.904-0.743-5.39-2.23-1.486-1.486-2.229-3.282-2.229-5.39 0-2.109 0.743-3.905 2.229-5.391s3.281-2.229 5.39-2.229c2.107 0 3.905 0.743 5.391 2.229s2.229 3.283 2.229 5.391v2.209c0 0.737 0.229 1.314 0.686 1.733 0.457 0.419 0.99 0.63 1.6 0.63 0.609 0 1.143-0.21 1.6-0.629 0.457-0.419 0.686-0.997 0.686-1.734v-2.209c0-3.327-1.2-6.191-3.601-8.591-2.4-2.4-5.263-3.6-8.59-3.6s-6.191 1.2-8.591 3.6c-2.4 2.4-3.6 5.264-3.6 8.591s1.2 6.19 3.6 8.59c2.4 2.4 5.264 3.6 8.591 3.6h7.619v3.048h-7.619zM16 20.571c1.27 0 2.349-0.445 3.238-1.334 0.889-0.888 1.334-1.968 1.334-3.238s-0.445-2.35-1.334-3.238c-0.888-0.889-1.968-1.334-3.238-1.334s-2.35 0.445-3.238 1.334c-0.889 0.888-1.334 1.968-1.334 3.238s0.445 2.349 1.334 3.238c0.888 0.889 1.968 1.334 3.238 1.334z"></path>
</symbol>
<symbol id="icon-form-name" viewBox="0 0 25 32">
<title>form-name</title>
<path d="M7.566 7.957c0-1.333 0.529-2.612 1.47-3.556 0.908-0.909 2.163-1.472 3.55-1.472s2.642 0.563 3.55 1.472l0 0c0.909 0.91 1.471 2.167 1.471 3.556s-0.562 2.645-1.471 3.556l0-0c-0.908 0.909-2.163 1.472-3.55 1.472s-2.642-0.563-3.55-1.472l-0-0c-0.908-0.91-1.47-2.167-1.47-3.554 0-0.001 0-0.001 0-0.002v0zM12.585 0.057c-2.179 0-4.151 0.884-5.577 2.313l-0 0c-1.428 1.431-2.312 3.406-2.312 5.587s0.883 4.156 2.312 5.587l-0-0c1.427 1.429 3.399 2.313 5.577 2.313s4.151-0.884 5.577-2.313l0-0c1.428-1.431 2.312-3.406 2.312-5.587s-0.883-4.156-2.312-5.587l0 0c-1.426-1.429-3.398-2.313-5.576-2.313h-0zM0.395 23.042c0-1.144 0.454-2.24 1.261-3.048 0.778-0.78 1.854-1.262 3.042-1.262h15.775c1.141 0 2.236 0.454 3.042 1.262 0.779 0.78 1.261 1.858 1.261 3.048 0 0 0 0 0 0v-0 0.324c-0.004 0.135-0.012 0.268-0.028 0.402-0.030 0.249-0.083 0.585-0.187 0.985-0.296 1.111-0.79 2.080-1.446 2.915l0.013-0.017c-1.677 2.157-4.834 4.011-10.542 4.011s-8.863-1.852-10.542-4.011c-0.644-0.818-1.138-1.787-1.421-2.842l-0.013-0.056c-0.102-0.375-0.176-0.815-0.209-1.267l-0.001-0.022c-0.001-0.027-0.002-0.061-0.002-0.095l-0-0.002v-0.032l-0.002-0.012v-0.28zM3.263 23.297v0.018c0.020 0.242 0.062 0.481 0.122 0.716 0.13 0.499 0.391 1.175 0.92 1.854 1.011 1.299 3.233 2.904 8.281 2.904 5.049 0 7.271-1.605 8.281-2.901 0.429-0.55 0.741-1.182 0.919-1.856 0.062-0.235 0.102-0.474 0.123-0.716v-0.273c0 0 0 0 0 0 0-0.793-0.642-1.436-1.434-1.438h-15.775c0 0 0 0 0 0-0.792 0-1.434 0.642-1.434 1.434 0 0.001 0 0.003 0 0.004v-0 0.255z"></path>
</symbol>
<symbol id="icon-form-pet" viewBox="0 0 25 32">
<title>form-pet</title>
<path d="M1.677 31.238v-14.629l-0.419-0.418c-0.274-0.275-0.494-0.605-0.641-0.971l-0.007-0.020c-0.145-0.349-0.229-0.754-0.229-1.178 0-0.001 0-0.002 0-0.002v0c-0-0.004-0-0.008-0-0.013 0-0.828 0.335-1.577 0.877-2.121l-0 0 4.991-5.029h6.095l6.095-6.095 3.125 3.123c0.973 0.965 1.768 2.108 2.333 3.376l0.028 0.071c0.53 1.19 0.839 2.579 0.839 4.040 0 0.020-0 0.039-0 0.059v-0.003c0 0.017 0 0.036 0 0.056 0 1.461-0.309 2.85-0.865 4.105l0.026-0.065c-0.593 1.339-1.388 2.482-2.36 3.446l-3.125 3.124v9.143h-16.761zM4.723 28.191h10.667v-7.353l4-4c0.702-0.695 1.279-1.515 1.693-2.424l0.021-0.051c0.406-0.914 0.609-1.893 0.609-2.934 0-1.016-0.209-1.981-0.629-2.895-0.444-0.956-1.013-1.774-1.698-2.479l0.002 0.002-0.953-0.991-4.837 4.839h-6.095l-0.877 0.875 2.552 2.553c0.689 0.686 1.248 1.501 1.639 2.406l0.019 0.050c0.373 0.854 0.59 1.848 0.59 2.894 0 0.007 0 0.014-0 0.022v-0.001c0 0.007 0 0.016 0 0.024 0 1.043-0.21 2.037-0.59 2.941l0.019-0.050c-0.408 0.972-0.975 1.801-1.676 2.494l-0.001 0.001-4.457-4.457v8.534z"></path>
</symbol>
<symbol id="icon-form-tel" viewBox="0 0 32 32">
<title>form-tel</title>
<path d="M29.523 31.238c-3.961 0-7.688-0.749-11.179-2.247-3.493-1.499-6.541-3.55-9.143-6.152-2.605-2.603-4.662-5.651-6.171-9.143-1.512-3.493-2.267-7.232-2.267-11.219-0.026-0.457 0.126-0.857 0.457-1.201 0.33-0.343 0.736-0.514 1.218-0.514h5.943c0.457 0 0.851 0.171 1.182 0.514s0.495 0.757 0.495 1.239c0 1.118 0.077 2.171 0.229 3.162 0.152 0.99 0.393 1.93 0.723 2.818 0.127 0.28 0.153 0.566 0.077 0.857-0.077 0.293-0.229 0.566-0.457 0.819l-3.809 3.809c1.091 2.235 2.64 4.355 4.647 6.362 2.007 2.006 4.166 3.606 6.477 4.8l3.809-3.809c0.229-0.229 0.496-0.382 0.8-0.457 0.305-0.077 0.61-0.051 0.914 0.075 0.81 0.274 1.791 0.519 2.798 0.688l0.116 0.016c1.003 0.166 2.039 0.249 3.105 0.249 0.482 0 0.896 0.177 1.239 0.533s0.514 0.789 0.514 1.296v5.829c0 0.457-0.166 0.85-0.496 1.181-0.301 0.306-0.719 0.495-1.182 0.495-0.013 0-0.027-0-0.040-0l0.002 0zM20.762 26.666c1.143 0.432 2.336 0.775 3.581 1.029 1.245 0.255 2.527 0.419 3.848 0.496v-3.277c-0.926-0.062-1.757-0.156-2.576-0.287l0.157 0.021c-0.946-0.148-1.775-0.347-2.577-0.604l0.119 0.033-2.552 2.59zM28.191 16c0-3.403-1.182-6.286-3.543-8.648-2.362-2.361-5.246-3.543-8.648-3.543v-3.047c2.109 0 4.089 0.4 5.943 1.199 1.854 0.8 3.466 1.886 4.838 3.257 1.349 1.355 2.447 2.96 3.219 4.739l0.038 0.1c0.8 1.854 1.2 3.834 1.2 5.943h-3.047zM22.095 16c0-1.677-0.597-3.111-1.79-4.305-1.194-1.193-2.629-1.79-4.305-1.79v-3.048c2.539 0 4.698 0.889 6.477 2.666 1.777 1.779 2.666 3.937 2.666 6.477h-3.048zM5.334 11.162l2.514-2.553c-0.175-0.598-0.354-1.381-0.494-2.178l-0.021-0.146c-0.127-0.697-0.229-1.548-0.282-2.411l-0.003-0.065h-3.2c0.051 1.219 0.203 2.439 0.457 3.657 0.255 1.219 0.598 2.451 1.029 3.696z"></path>
</symbol>
<symbol id="icon-instagram" viewBox="0 0 32 32">
<title>instagram</title>
<path stroke-linejoin="round" stroke-linecap="round" stroke-miterlimit="4" stroke-width="2.4706" d="M16 22.275c3.465 0 6.275-2.809 6.275-6.275s-2.809-6.275-6.275-6.275v0c-3.466 0-6.275 2.809-6.275 6.275s2.809 6.275 6.275 6.275v0z"></path>
<path stroke-linejoin="miter" stroke-linecap="butt" stroke-miterlimit="4" stroke-width="2.4706" d="M1.882 22.275v-12.55c0-4.331 3.511-7.843 7.843-7.843v0h12.55c4.331 0 7.843 3.511 7.843 7.843v0 12.55c0 4.331-3.511 7.843-7.843 7.843v0h-12.55c-4.331 0-7.843-3.511-7.843-7.843v0z"></path>
</symbol>
<symbol id="icon-indicator" viewBox="0 0 73 32">
<title>indicator</title>
<path d="M72.672 13.749c0.834-1.89 0.379-4.677 0-6.752-0.291-1.746-1.046-3.279-2.132-4.513l0.009 0.010c-1.097-1.28-2.718-1.886-4.247-2.249-1.211-0.315-3.038-0.336-4.247 0-1.209 0.334-1.166 1.335-2.126 2.249-2.382 2.171-5.454 2.327-8.491 2.251h-29.733c-3.040 0.075-6.11-0.078-8.494-2.251-0.955-0.914-0.914-1.915-2.123-2.249-1.209-0.336-3.033-0.315-4.247 0-1.531 0.366-3.152 0.969-4.247 2.249-1.097 1.28-1.829 2.738-2.126 4.503-0.377 2.075-0.832 4.862 0 6.752 0.304 0.681 2.126 1.486 2.126 2.251s-1.822 1.57-2.126 2.251c-0.83 1.893-0.377 4.677 0 6.752 0.297 1.767 1.029 3.221 2.126 4.503 1.097 1.28 2.718 1.881 4.247 2.249 1.211 0.315 3.038 0.336 4.247 0 1.209-0.334 1.166-1.335 2.126-2.249 2.379-2.176 5.451-2.322 8.491-2.251h29.733c3.040-0.071 6.112 0.075 8.494 2.251 0.955 0.914 0.914 1.915 2.123 2.249 1.209 0.336 3.033 0.315 4.247 0 1.531-0.368 3.152-0.967 4.247-2.249 1.097-1.282 1.829-2.736 2.126-4.503 0.377-2.075 0.83-4.859 0-6.752-0.304-0.681-2.126-1.486-2.126-2.251s1.822-1.57 2.126-2.251z"></path>
</symbol>
</defs>
</svg>
