<svg xmlns="http://www.w3.org/2000/svg" fill="none" viewBox="0 0 60 60">
  <path fill="#FF6E9F" d="M29.617 28.44c-2.47-4.004-6.6-3.004-12.08-4.904-7.983-2.73-11.633.595-10.517 4.418 1.016 3.74 6.28 4.657 8.177 8.338 2.148 3.572.191 8.326 3.05 11.217 2.759 2.807 7.568 1.58 9.358-6.517 1.16-5.425 4.33-8.356 2.012-12.552ZM26.99 16.913c-1.607 3.905-5.064 5.932-7.622 4.732-2.558-1.201-3.313-5.504-1.605-9.325 1.606-3.906 4.963-6.017 7.621-4.732 2.658 1.285 3.213 5.419 1.606 9.325ZM38.193 37.14c-4.236-.741-7.778.989-8.008 3.783-.23 2.794 3.054 5.564 7.265 6.127 4.236.742 7.779-.988 8.009-3.782.23-2.794-3.055-5.564-7.266-6.128Zm1.417-15.085c-3.35 2.695-7.693 2.974-9.754.606-2.06-2.369-.915-6.607 2.435-9.301 3.35-2.695 7.693-2.974 9.754-.605 2.06 2.368.914 6.606-2.435 9.3Zm1.34 1.892c-4.217 1.266-6.637 4.514-5.508 7.333 1.13 2.819 5.371 4.063 9.588 2.797 4.217-1.266 6.637-4.514 5.508-7.333-1.13-2.819-5.371-4.063-9.588-2.797Z"/>
</svg>
